<?xml version="1.0" encoding="UTF-8" standalone="no"?>
<svg
   xmlns:osb="http://www.openswatchbook.org/uri/2009/osb"
   xmlns:dc="http://purl.org/dc/elements/1.1/"
   xmlns:cc="http://creativecommons.org/ns#"
   xmlns:rdf="http://www.w3.org/1999/02/22-rdf-syntax-ns#"
   xmlns:svg="http://www.w3.org/2000/svg"
   xmlns="http://www.w3.org/2000/svg"
   xmlns:sodipodi="http://sodipodi.sourceforge.net/DTD/sodipodi-0.dtd"
   xmlns:inkscape="http://www.inkscape.org/namespaces/inkscape"
   width="600"
   height="796"
   viewBox="0 0 480 636.8"
   version="1.1"
   id="svg2"
   inkscape:version="0.48.5 r10040"
   sodipodi:docname="satnet-name-hindi-white.svg"
   inkscape:export-filename="/home/rtubio/repositories/satnet/server/website/static/src/images/satnet-name-hindi.png"
   inkscape:export-xdpi="387.64001"
   inkscape:export-ydpi="387.64001">
  <metadata
     id="metadata45">
    <rdf:RDF>
      <cc:Work
         rdf:about="">
        <dc:format>image/svg+xml</dc:format>
        <dc:type
           rdf:resource="http://purl.org/dc/dcmitype/StillImage" />
        <dc:title />
      </cc:Work>
    </rdf:RDF>
  </metadata>
  <defs
     id="defs43">
    <inkscape:path-effect
       effect="skeletal"
       id="path-effect3813"
       is_visible="true"
       pattern="M 0,0 0,10 10,5 z"
       copytype="single_stretched"
       prop_scale="1"
       scale_y_rel="false"
       spacing="0"
       normal_offset="0"
       tang_offset="0"
       prop_units="false"
       vertical_pattern="false"
       fuse_tolerance="0" />
    <inkscape:path-effect
       effect="skeletal"
       id="path-effect3805"
       is_visible="true"
       pattern="M 0,0 0,10 10,5 z"
       copytype="single_stretched"
       prop_scale="1"
       scale_y_rel="false"
       spacing="0"
       normal_offset="0"
       tang_offset="0"
       prop_units="false"
       vertical_pattern="false"
       fuse_tolerance="0" />
    <linearGradient
       id="linearGradient5353"
       osb:paint="solid">
      <stop
         style="stop-color:#000000;stop-opacity:1;"
         offset="0"
         id="stop5355" />
    </linearGradient>
    <linearGradient
       id="linearGradient3835">
      <stop
         id="stop5379"
         offset="0"
         style="stop-color:#0f3e62;stop-opacity:1;" />
      <stop
         style="stop-color:#0f3e62;stop-opacity:0;"
         offset="1"
         id="stop3839" />
    </linearGradient>
    <inkscape:path-effect
       effect="skeletal"
       id="path-effect3005"
       is_visible="true"
       pattern="M 0,0 0,10 10,5 z"
       copytype="single_stretched"
       prop_scale="1"
       scale_y_rel="false"
       spacing="0"
       normal_offset="0"
       tang_offset="0"
       prop_units="false"
       vertical_pattern="false"
       fuse_tolerance="0" />
    <path
       style="fill:none;stroke:#000000;stroke-width:8.27438545;stroke-linecap:butt;stroke-linejoin:miter;stroke-miterlimit:10;stroke-opacity:1"
       d="M 60.114998,-99.18204 C 60.446928,-174.96142 124.69826,-236.319 204.05967,-236.6412"
       id="path35-5-2"
       inkscape:connector-curvature="0"
       inkscape:export-filename="/home/rtubio/repositories/satnet/server/website/static/src/images/path7.png"
       inkscape:export-xdpi="150"
       inkscape:export-ydpi="150" />
    <inkscape:path-effect
       effect="skeletal"
       id="path-effect3813-3"
       is_visible="true"
       pattern="m 32.976482,224.02222 0,10 10,-5 z"
       copytype="single_stretched"
       prop_scale="1"
       scale_y_rel="false"
       spacing="0"
       normal_offset="0"
       tang_offset="0"
       prop_units="false"
       vertical_pattern="false"
       fuse_tolerance="0" />
  </defs>
  <sodipodi:namedview
     pagecolor="#31393b"
     bordercolor="#666666"
     borderopacity="1"
     objecttolerance="10"
     gridtolerance="10"
     guidetolerance="10"
     inkscape:pageopacity="1"
     inkscape:pageshadow="2"
     inkscape:window-width="1573"
     inkscape:window-height="1013"
     id="namedview41"
     showgrid="true"
     inkscape:zoom="1.44"
     inkscape:cx="224.37866"
     inkscape:cy="483.33333"
     inkscape:window-x="2"
     inkscape:window-y="27"
     inkscape:window-maximized="0"
     inkscape:current-layer="surface924855"
     showborder="true"
     inkscape:showpageshadow="false"
     borderlayer="false"
     inkscape:snap-global="false">
    <inkscape:grid
       type="xygrid"
       id="grid3801" />
  </sodipodi:namedview>
  <g
     id="surface924855"
     transform="translate(-0.35329428,403.8)">
    <text
       xml:space="preserve"
       style="font-size:28.28313446px;font-style:normal;font-weight:normal;line-height:125%;letter-spacing:0px;word-spacing:0px;fill:#000000;fill-opacity:1;stroke:none;font-family:Sans"
       id="text3054"
       sodipodi:linespacing="125%"
       transform="scale(0.9765025,1.0240629)"
       inkscape:export-filename="/home/rtubio/repositories/satnet/satnet-ng/src/images/satnet-name-hindi.png"
       inkscape:export-xdpi="150"
       inkscape:export-ydpi="150"
       x="304.30988"
       y="424.31458">uvigo - calpoly - 2016</text>
    <path
       style="fill:#9e9e9e;fill-opacity:1;stroke:#9e9e9e;stroke-width:0.66416991;stroke-linecap:butt;stroke-miterlimit:4;stroke-opacity:1;stroke-dasharray:none"
       id="path3872"
       d="m 245.33193,-212.48837 c 1.55224,-1.54961 0.96201,-0.98178 -2.6689,3.07619 -0.54234,0.6061 1.08058,-1.22664 1.61994,-1.84318 0.72522,-0.82893 1.44813,-1.66587 2.17383,-2.49321 6.88736,-7.85207 4.46377,-5.14166 9.3996,-10.59429 5.28702,-5.52169 10.71149,-10.51851 16.28456,-14.78964 1.48255,-1.10531 2.93031,-2.57316 4.51897,-2.95761 0.73879,-0.0539 1.49629,0.32518 2.1709,0.91492 0.90035,0.58043 1.3434,1.95501 1.6953,3.60518 0.8516,5.89361 -0.11325,11.90504 -0.93059,17.57825 -2.85283,16.52327 -6.4778,32.47645 -10.14291,48.33831 -3.07648,13.21882 -6.32816,26.30655 -8.99037,39.8891 -0.39675,2.02412 -0.75046,4.08049 -1.12569,6.12074 -1.36349,7.41567 -2.5206,14.96724 -3.11845,22.78023 -0.13154,2.27463 -0.0667,1.21115 -0.19214,3.191033 0,0 -4.3581,4.235977 -4.3581,4.235977 l 0,0 c 0.20387,-2.027585 0.1036,-0.929873 0.29085,-3.296687 0.77575,-8.003903 2.0108,-15.763883 3.51793,-23.344283 0.40191,-2.07663 0.78304,-4.16962 1.20572,-6.22993 2.79694,-13.63328 6.14001,-26.79452 9.24631,-40.15031 3.59002,-15.6095 7.12352,-31.3568 9.69096,-47.76755 0.67599,-5.37761 1.48833,-11.08309 0.64049,-16.57893 -0.32646,-1.44026 -0.73127,-2.45022 -1.51789,-2.92115 -0.64866,-0.43548 -1.33962,-0.71447 -2.02412,-0.49473 -1.45097,0.52815 -2.80642,1.74255 -4.19092,2.71056 -5.48286,4.03927 -10.79235,8.94038 -15.94716,14.42294 -3.75717,4.21446 -3.99214,4.70363 -10.54752,12.12736 -0.19303,0.2186 -0.40179,0.3772 -0.6027,0.56579 0,0 3.9021,-6.09509 3.9021,-6.09509 z"
       inkscape:connector-curvature="0"
       inkscape:export-filename="/home/rtubio/repositories/satnet/satnet-ng/src/images/satnet-name-hindi.png"
       inkscape:export-xdpi="150"
       inkscape:export-ydpi="150" />
    <path
       style="fill:#9e9e9e;fill-opacity:1;stroke:#9e9e9e;stroke-width:6.2688942;stroke-linecap:butt;stroke-miterlimit:4;stroke-opacity:1;stroke-dasharray:none"
       id="path3838"
       d="m 66.887451,-254.21893 c 12.04693,0.99919 24.19973,0.98132 36.311489,1.08833 21.82818,0.0722 43.64633,-0.45685 65.46562,-0.79994 18.83358,-0.29614 22.33522,-0.31865 41.39738,-0.54424 41.90759,-0.42476 83.8141,-0.89492 125.72215,-1.30077 25.13706,-0.17507 50.26871,-0.65248 75.39044,-1.27921 0,0 -4.94466,2.51875 -4.94466,2.51875 l 0,0 c -24.43063,-0.004 -48.85976,0.25931 -73.29064,0.20676 -41.76508,0.11426 -83.52466,0.5401 -125.28269,1.08013 -19.76461,0.30902 -22.25784,0.31568 -41.78863,0.74652 -22.28369,0.49156 -44.55691,1.2316 -66.850299,1.49411 -12.81867,0.12243 -25.64262,0.28321 -38.455911,-0.11064 0,0 6.325751,-3.09978 6.325751,-3.09978 z"
       inkscape:connector-curvature="0"
       inkscape:export-filename="/home/rtubio/repositories/satnet/satnet-ng/src/images/satnet-name-hindi.png"
       inkscape:export-xdpi="150"
       inkscape:export-ydpi="150" />
    <path
       style="fill:#9e9e9e;fill-opacity:1;stroke:#9e9e9e;stroke-width:2.96964073;stroke-linecap:butt;stroke-miterlimit:4;stroke-opacity:1;stroke-dasharray:none"
       id="path3846"
       d="m 216.58108,-293.59168 c -1.92815,3.52548 -3.87331,7.00474 -5.74176,10.71461 -0.71242,1.41457 -1.4083,2.87657 -2.11243,4.31486 -2.32564,4.94688 -4.60214,10.05544 -6.66401,15.64727 -1.40377,3.80708 -2.75847,7.84454 -3.87511,12.17865 -0.57949,2.2492 -1.05676,4.64131 -1.58514,6.96195 -1.06449,6.19749 -1.53557,8.19432 -2.15562,14.71341 -0.4494,4.72476 -0.64092,9.32305 -0.61629,14.16159 0.0301,5.91379 0.22122,6.8957 0.69128,12.56872 0.59766,4.16729 0.8604,6.83965 1.86042,10.56777 0.92013,3.43025 1.97575,5.95488 3.3908,8.21967 1.87282,2.99743 2.67821,3.27435 4.80193,5.00408 0.91121,0.42367 1.81373,0.97483 2.73363,1.271 3.5755,1.1512 7.23052,0.43199 10.76476,-1.10456 0.68558,-0.29804 1.36258,-0.70048 2.04387,-1.05072 1.24154,-0.67493 2.44475,-1.64447 3.63041,-2.73938 0,0 -1.42197,2.66712 -1.42197,2.66712 l 0,0 c -1.12419,0.91394 -2.26186,1.72084 -3.4268,2.28887 -0.66049,0.30439 -1.3177,0.65323 -1.98148,0.91317 -3.5289,1.38202 -7.16385,2.03806 -10.72307,0.89275 -0.92979,-0.29919 -1.8425,-0.85031 -2.76374,-1.27545 -2.14739,-1.73991 -2.97178,-2.02789 -4.86924,-5.04242 -1.42,-2.25598 -2.53147,-4.85758 -3.4489,-8.30689 -0.97067,-3.64955 -1.26712,-6.63986 -1.83395,-10.71138 -0.44788,-5.76203 -0.63242,-6.7282 -0.63968,-12.7209 -0.007,-4.90129 0.20114,-9.51999 0.6647,-14.30127 0.62773,-6.47483 1.1148,-8.6284 2.16283,-14.79157 0.51868,-2.32274 0.98326,-4.71995 1.55604,-6.96819 0.55504,-2.17863 1.17842,-4.25662 1.82181,-6.29037 2.51243,-7.94193 5.54771,-14.82645 8.61028,-21.51438 0.68004,-1.41836 1.35274,-2.8573 2.04014,-4.25511 1.72538,-3.50863 3.52794,-6.78781 5.25869,-10.27935 0,0 1.8276,-1.73355 1.8276,-1.73355 z"
       inkscape:connector-curvature="0"
       inkscape:export-filename="/home/rtubio/repositories/satnet/satnet-ng/src/images/satnet-name-hindi.png"
       inkscape:export-xdpi="150"
       inkscape:export-ydpi="150" />
    <path
       style="fill:#9e9e9e;fill-opacity:1;stroke:#9e9e9e;stroke-width:2.96964073;stroke-linecap:butt;stroke-miterlimit:4;stroke-opacity:1;stroke-dasharray:none"
       id="path3846-4"
       d="m 360.68524,-293.76917 c -1.92814,3.52545 -3.8733,7.00472 -5.74175,10.71459 -0.71244,1.41455 -1.4083,2.87657 -2.11245,4.31486 -2.32563,4.94687 -4.60213,10.05543 -6.664,15.64726 -1.40376,3.80709 -2.75846,7.84454 -3.87511,12.17866 -0.57948,2.2492 -1.05676,4.6413 -1.58514,6.96194 -1.06448,6.19749 -1.53557,8.19433 -2.15562,14.71341 -0.4494,4.72476 -0.64092,9.32306 -0.61629,14.16159 0.03,5.9138 0.22123,6.8957 0.69127,12.56872 0.59767,4.16729 0.86042,6.83965 1.86044,10.56778 0.92012,3.43025 1.97574,5.95488 3.39079,8.21966 1.87283,2.99744 2.67822,3.27435 4.80194,5.00407 0.91121,0.42368 1.81373,0.97485 2.73362,1.27102 3.57551,1.15119 7.23052,0.43198 10.76475,-1.10457 0.6856,-0.29804 1.36259,-0.70047 2.04388,-1.05071 1.24154,-0.67493 2.44475,-1.64448 3.63042,-2.73938 0,0 -1.42198,2.66712 -1.42198,2.66712 l 0,0 c -1.12419,0.91393 -2.26186,1.72084 -3.42679,2.28886 -0.6605,0.30439 -1.31771,0.65322 -1.98149,0.91318 -3.5289,1.38201 -7.16385,2.03805 -10.72306,0.89275 -0.9298,-0.2992 -1.84251,-0.85031 -2.76375,-1.27547 -2.14738,-1.7399 -2.97178,-2.02788 -4.86924,-5.04241 -1.42,-2.25597 -2.53147,-4.85758 -3.4489,-8.30689 -0.97067,-3.64953 -1.26712,-6.63986 -1.83395,-10.71137 -0.44788,-5.76204 -0.63243,-6.72821 -0.63967,-12.72089 -0.007,-4.9013 0.20114,-9.52 0.66469,-14.30126 0.62774,-6.47486 1.11481,-8.62843 2.16283,-14.79159 0.51868,-2.32274 0.98326,-4.71996 1.55604,-6.96818 0.55504,-2.17867 1.17842,-4.25663 1.82181,-6.29039 2.51244,-7.94192 5.54771,-14.82644 8.61028,-21.51437 0.68004,-1.41837 1.35275,-2.85731 2.04015,-4.25513 1.72538,-3.50862 3.52793,-6.7878 5.25868,-10.27933 0,0 1.8276,-1.73356 1.8276,-1.73356 z"
       inkscape:connector-curvature="0"
       inkscape:export-filename="/home/rtubio/repositories/satnet/satnet-ng/src/images/satnet-name-hindi.png"
       inkscape:export-xdpi="150"
       inkscape:export-ydpi="150" />
    <path
       style="fill:#9e9e9e;fill-opacity:1;stroke:#9e9e9e;stroke-width:0.93026286;stroke-linecap:butt;stroke-miterlimit:4;stroke-opacity:1;stroke-dasharray:none"
       id="path3866"
       d="m 251.48999,-254.67437 c 0.1524,6.59672 -1.28058,13.18817 -2.51694,19.76054 -3.2704,13.75729 -4.69517,27.56592 -5.37102,41.37983 -0.19307,4.0388 -0.11116,8.07799 0.0155,12.11669 0,0 -12.25623,2.53706 -12.25623,2.53706 l 0,0 c 0.47785,-4.13743 0.95619,-8.27488 1.38011,-12.41332 1.51534,-13.79195 3.25821,-27.57978 5.21313,-41.36252 0.56261,-5.4477 1.26994,-10.92601 0.70022,-16.38062 -0.10631,-1.01843 -0.36186,-1.79283 -0.64443,-2.76517 0,0 13.4819,-2.87249 13.4819,-2.87249 z"
       inkscape:connector-curvature="0"
       inkscape:export-filename="/home/rtubio/repositories/satnet/satnet-ng/src/images/satnet-name-hindi.png"
       inkscape:export-xdpi="150"
       inkscape:export-ydpi="150" />
    <path
       style="fill:#9e9e9e;fill-opacity:1;stroke:#9e9e9e;stroke-width:0.47007698;stroke-linecap:butt;stroke-miterlimit:4;stroke-opacity:1;stroke-dasharray:none"
       id="path3880"
       d="m 295.36969,-226.75891 c 1.24724,0.46525 2.48695,0.5106 3.74406,0.23232 4.28432,-1.37956 8.30767,-4.65051 12.29865,-7.81521 5.07297,-4.06969 10.2004,-7.91096 15.07015,-12.83352 -7.98559,8.39825 -2.00714,3.40992 -1.59886,0.0743 -0.26794,-0.72283 -0.71891,-1.1587 -1.09675,-1.65807 -1.00824,-1.23036 -2.18108,-1.36728 -3.33993,-1.57 -0.44483,-0.0498 -0.88917,-0.179 -1.33448,-0.14932 -1.27426,0.085 -3.1059,0.73081 -4.28586,1.2447 -2.057,0.89583 -4.56191,2.2857 -6.5171,3.65909 -1.25421,0.88101 -2.47372,1.93429 -3.71058,2.90142 -1.23504,1.15627 -2.47008,2.31253 -3.70512,3.4688 0.25062,-0.24261 0.97031,-1.0661 0.75185,-0.72785 -0.97978,1.51697 -2.08238,2.72977 -3.04719,4.28169 -1.51921,2.44369 -3.27443,5.9853 -4.32659,9.27627 -0.50163,1.56896 -0.82018,3.32809 -1.23027,4.99213 -0.2246,1.75829 -0.53916,3.48303 -0.67377,5.27487 -0.3919,5.21702 0.0232,10.65412 1.16991,15.44035 0.88381,3.68922 1.61056,5.01624 2.9214,8.11741 2.22981,4.28956 4.98395,7.3285 8.09677,8.51824 1.6921,0.64671 2.57321,0.50935 4.27613,0.5357 1.80552,-0.11594 3.5496,-0.95655 5.28968,-1.79665 0,0 -4.40868,6.44949 -4.40868,6.44949 l 0,0 c -1.73602,0.71764 -3.47706,1.41096 -5.26386,1.42982 -1.76093,-0.12469 -2.58547,-0.0279 -4.32948,-0.79469 -3.17595,-1.3966 -5.95998,-4.64443 -8.21156,-9.11985 -1.36148,-3.29368 -2.05194,-4.55999 -2.97667,-8.45252 -1.18053,-4.96912 -1.64338,-10.54804 -1.28271,-15.97255 0.12317,-1.85344 0.42708,-3.64593 0.64062,-5.46887 0.40916,-1.74135 0.71851,-3.58249 1.2275,-5.22405 1.71681,-5.53683 4.67824,-10.67704 7.4934,-14.06418 6.05213,-7.28178 6.40174,-7.37491 11.49394,-12.063 1.26226,-0.97623 2.50861,-2.03181 3.78674,-2.92871 2.0462,-1.43586 4.62316,-2.90908 6.76889,-3.8748 1.50302,-0.67643 3.03312,-1.22495 4.57965,-1.35445 0.47214,-0.0394 0.94461,0.0615 1.41691,0.0922 1.27118,0.2087 2.54719,0.44075 3.6303,1.86295 0.55765,0.7019 1.12922,1.40691 1.39354,2.63855 0.009,0.26282 0.046,0.52855 0.0242,0.78848 -0.058,0.69057 -0.30524,1.39733 -0.53274,1.90157 -1.91763,4.25026 -5.52812,4.79876 -7.37179,8.86118 -4.81835,4.62836 -9.85846,8.30416 -14.81536,12.33839 -4.16517,3.32436 -8.36507,6.82951 -12.84621,8.23563 -1.3176,0.21729 -2.61289,0.0485 -3.92137,-0.31569 0,0 4.75262,-6.43148 4.75262,-6.43148 z"
       inkscape:connector-curvature="0"
       inkscape:export-filename="/home/rtubio/repositories/satnet/satnet-ng/src/images/satnet-name-hindi.png"
       inkscape:export-xdpi="150"
       inkscape:export-ydpi="150" />
    <path
       style="fill:#9e9e9e;fill-opacity:1;stroke:#9e9e9e;stroke-width:0.89453149;stroke-linecap:butt;stroke-miterlimit:4;stroke-opacity:1;stroke-dasharray:none"
       id="path3866-7"
       d="m 181.53888,-255.09968 c 0.14854,6.26138 -1.24752,12.51773 -2.45196,18.75599 -3.18598,13.05788 -4.57395,26.16454 -5.23234,39.27619 -0.18833,3.83349 -0.10816,7.66731 0.0147,11.50071 0,0 -11.9398,2.4081 -11.9398,2.4081 l 0,0 c 0.46556,-3.92711 0.93155,-7.85421 1.34452,-11.78227 1.47615,-13.09082 3.17408,-26.1777 5.07852,-39.25978 0.54805,-5.17075 1.23713,-10.37056 0.68212,-15.54787 -0.10345,-0.96664 -0.35249,-1.70168 -0.62777,-2.62459 0,0 13.13377,-2.72647 13.13377,-2.72647 z"
       inkscape:connector-curvature="0"
       inkscape:export-filename="/home/rtubio/repositories/satnet/satnet-ng/src/images/satnet-name-hindi.png"
       inkscape:export-xdpi="150"
       inkscape:export-ydpi="150" />
    <path
       style="fill:#9e9e9e;fill-opacity:1;stroke:#9e9e9e;stroke-width:0.31263986;stroke-linecap:butt;stroke-miterlimit:4;stroke-opacity:1;stroke-dasharray:none"
       id="path3900"
       d="m 170.11748,-224.49805 c -1.9727,-0.70516 -4.1183,-0.57248 -6.18815,-0.34444 -3.2968,0.36322 -3.80239,0.56075 -7.21789,1.26862 -4.82781,1.24307 -9.57834,2.83572 -13.91854,5.0903 -0.1383,0.0719 -0.0501,0.29805 -0.16542,0.39608 -5.20282,4.4214 -1.48436,0.46314 -5.42257,5.02825 -0.79073,1.88102 -1.54799,2.80607 -1.04015,4.85807 0.74512,3.01065 4.0449,5.3064 6.87617,6.78285 1.37671,0.71793 2.87941,1.23309 4.31913,1.84962 8.07631,2.73731 16.73381,3.47546 25.33346,3.10436 1.17046,-0.0505 2.33608,-0.16556 3.50412,-0.24835 0.88222,-0.11354 1.76442,-0.22693 2.64665,-0.3404 0,0 -4.18213,2.72288 -4.18213,2.72288 l 0,0 c -0.83725,0.073 -1.6745,0.14614 -2.51175,0.2192 -4.21221,0.15968 -8.42716,0.23061 -12.63489,-0.1056 -5.48617,-0.43837 -10.91187,-1.39196 -16.0754,-3.09235 -1.49252,-0.61496 -3.0443,-1.1305 -4.47757,-1.84491 -3.02218,-1.50634 -6.55803,-3.82279 -7.39832,-6.99872 -0.57636,-2.17839 0.24928,-3.1976 1.0842,-5.19254 0.7624,-0.88736 1.41985,-1.85154 2.28719,-2.66208 3.25081,-3.03793 7.34551,-4.91282 11.45507,-6.99526 4.44566,-2.25276 9.27979,-3.86404 14.18841,-5.14972 3.37211,-0.72443 4.24931,-1.00208 7.53974,-1.39864 2.26085,-0.27247 4.597,-0.40225 6.77215,0.31016 0,0 -4.77351,2.74261 -4.77351,2.74261 z"
       inkscape:connector-curvature="0"
       inkscape:export-filename="/home/rtubio/repositories/satnet/satnet-ng/src/images/satnet-name-hindi.png"
       inkscape:export-xdpi="150"
       inkscape:export-ydpi="150" />
    <path
       style="fill:#ffffff;fill-opacity:1;stroke:none"
       id="path3900-9"
       d="m 116.76744,-247.66731 c -3.11009,-3.02795 -7.04856,-4.98149 -10.90971,-6.71695 -6.149993,-2.7643 -7.180793,-2.97699 -13.757004,-5.34694 -9.44527,-2.98873 -18.96759,-5.37946 -28.161237,-6.3729 -0.292988,-0.0316 -0.274248,0.39367 -0.542011,0.42407 -12.08258,1.36889 -2.954041,-0.79841 -12.852399,2.05237 -2.583174,2.00873 -4.515662,2.62727 -4.87039,6.19253 -0.520424,5.23094 3.992429,11.95831 8.169331,16.99577 2.031013,2.4495 4.413759,4.72328 6.620619,7.08489 12.825417,12.17378 27.930347,21.95276 43.616501,30.0217 2.13496,1.09815 4.30111,2.0955 6.45165,3.14323 1.65583,0.71537 3.31152,1.43095 4.96731,2.14641 0,0 -9.19882,-0.13751 -9.19882,-0.13751 l 0,0 c -1.55001,-0.73064 -3.1,-1.46115 -4.65001,-2.19175 -7.669564,-3.98514 -15.289324,-8.10527 -22.644534,-12.82452 -9.589988,-6.15309 -18.753047,-13.01287 -26.983547,-20.72209 -2.302774,-2.41222 -4.773461,-4.73579 -6.908334,-7.2367 -4.501528,-5.27339 -9.425958,-12.26827 -8.974513,-17.84077 0.309636,-3.82222 2.423207,-4.51242 5.156174,-6.64654 1.918465,-0.55721 3.695727,-1.33407 5.755357,-1.67171 7.719482,-1.26541 16.237376,0.0474 24.910163,1.06598 9.3821,1.10188 19.06622,3.54866 28.683034,6.55492 6.5085,2.30183 8.25667,2.76777 14.41581,5.47599 4.23193,1.86084 8.51107,4.0097 11.98055,7.2514 0,0 -10.27396,-0.70101 -10.27396,-0.70101 z"
       inkscape:connector-curvature="0"
       inkscape:export-filename="/home/rtubio/repositories/satnet/satnet-ng/src/images/satnet-name-hindi.png"
       inkscape:export-xdpi="150"
       inkscape:export-ydpi="150" />
    <path
       style="fill:#ffffff;fill-opacity:1;stroke:none"
       id="path3900-9-5"
       d="m 95.742666,-201.0938 c 7.832004,2.57041 15.110664,6.97031 21.994354,11.39318 10.96429,7.04468 12.45031,8.37806 23.35228,16.26753 15.07571,11.58432 29.40106,23.64188 41.38708,36.08354 0.38185,0.39674 -0.23651,0.62881 0.0295,1.02731 11.99951,17.97908 4.52367,3.70598 11.9274,19.48753 0.15738,4.88831 1.51589,8.00711 -3.0782,10.68052 -6.74047,3.92238 -21.37959,1.61309 -33.26039,-1.24803 -5.77705,-1.39124 -11.71276,-3.38849 -17.56914,-5.08274 -31.85843,-10.79029 -62.982714,-26.27301 -92.377101,-43.62132 -4.000622,-2.36126 -7.895713,-4.82808 -11.843557,-7.24215 -2.911488,-1.91427 -5.823075,-3.82824 -8.734661,-5.74246 0,0 10.7909,12.97002 10.7909,12.97002 l 0,0 c 2.811044,1.75483 5.621815,3.50968 8.432785,5.26459 14.428081,8.458 28.98814,16.76307 44.08418,24.32812 19.682644,9.86359 39.865094,18.69124 60.165034,25.67847 6.03786,1.79956 12.14478,3.89138 18.11364,5.39863 12.58583,3.178382 28.0745,5.908729 35.37373,1.87638 5.00658,-2.765859 3.54006,-6.185202 3.38601,-11.36243 -1.42844,-3.0616 -2.38587,-6.05643 -4.28503,-9.18473 -7.11802,-11.72466 -18.7736,-23.01303 -30.19486,-34.70019 -12.35531,-12.64313 -26.94571,-24.89617 -42.24364,-36.71318 -10.72841,-7.83493 -13.39625,-10.03214 -24.2924,-17.12392 -7.486743,-4.87274 -15.432024,-9.63719 -23.977954,-12.58748 0,0 12.82029,14.15274 12.82029,14.15274 z"
       inkscape:connector-curvature="0"
       inkscape:export-filename="/home/rtubio/repositories/satnet/satnet-ng/src/images/satnet-name-hindi.png"
       inkscape:export-xdpi="150"
       inkscape:export-ydpi="150" />
  </g>
</svg>
